<svg xmlns="http://www.w3.org/2000/svg" width="107" height="128" viewBox="0 0 107 128">
  <defs>
    <linearGradient id="docGrad" x1="0%" y1="0%" x2="100%" y2="100%">
      <stop offset="0%" stop-color="#243047"/>
      <stop offset="100%" stop-color="#161E2E"/>
    </linearGradient>
  </defs>

  <!-- Document body -->
  <path d="M27 10 H65 L82 27 V118 H27 Z" fill="url(#docGrad)" stroke="#0F1623" stroke-width="1.2"/>
  <!-- Folded corner -->
  <path d="M65 10 L82 27 H68 a3.4 3.4 0 0 1 -3.4 -3.4 Z" fill="#3A4A68"/>

  <!-- Text lines (top) -->
  <rect x="35" y="28" width="23" height="3.4" rx="1.7" fill="#5B6B8C" opacity="0.75"/>
  <rect x="35" y="36" width="17" height="3.4" rx="1.7" fill="#5B6B8C" opacity="0.55"/>

  <!-- Text lines (bottom) -->
  <rect x="35" y="94" width="22" height="3.4" rx="1.7" fill="#5B6B8C" opacity="0.55"/>
  <rect x="35" y="102" width="15" height="3.4" rx="1.7" fill="#5B6B8C" opacity="0.4"/>

  <!-- Infinity symbol -->
  <g transform="translate(54.5,66)">
    <path d="M -17.7 0
             C -17.7 -10.6, -3.4 -10.6, 0 0
             C 3.4 10.6, 17.7 10.6, 17.7 0
             C 17.7 -10.6, 3.4 -10.6, 0 0
             C -3.4 10.6, -17.7 10.6, -17.7 0
             Z"
          fill="none" stroke="#FFFFFF" stroke-width="5.4" stroke-linecap="round" stroke-linejoin="round"/>
    <path d="M -17.7 0
             C -17.7 -10.6, -3.4 -10.6, 0 0
             C 3.4 10.6, 17.7 10.6, 17.7 0
             C 17.7 -10.6, 3.4 -10.6, 0 0
             C -3.4 10.6, -17.7 10.6, -17.7 0
             Z"
          fill="none" stroke="#9AB4FF" stroke-width="1.35" stroke-linecap="round" stroke-linejoin="round" opacity="0.6"/>
  </g>
</svg>
