<svg xmlns="http://www.w3.org/2000/svg" width="122" height="128" viewBox="0 0 122 128">
  <!-- Document body: white fill, dark outline -->
  <path d="M20 10 H76 L94 27 V118 H20 Z" fill="#FFFFFF" stroke="#1E293B" stroke-width="2.4" stroke-linejoin="round"/>
  <!-- Folded corner -->
  <path d="M76 10 L94 27 H80 a3.4 3.4 0 0 1 -3.4 -3.4 Z" fill="#E7EAF0" stroke="#1E293B" stroke-width="2.4" stroke-linejoin="round"/>

  <!-- Text lines (top) -->
  <rect x="29" y="28" width="26" height="3.4" rx="1.7" fill="#1E293B" opacity="0.5"/>
  <rect x="29" y="36" width="19" height="3.4" rx="1.7" fill="#1E293B" opacity="0.35"/>

  <!-- Text lines (bottom) -->
  <rect x="29" y="94" width="25" height="3.4" rx="1.7" fill="#1E293B" opacity="0.35"/>
  <rect x="29" y="102" width="17" height="3.4" rx="1.7" fill="#1E293B" opacity="0.25"/>

  <!-- Infinity symbol -->
  <g transform="translate(57,66)">
    <path d="M -18.7 0
             C -18.7 -11.2, -3.6 -11.2, 0 0
             C 3.6 11.2, 18.7 11.2, 18.7 0
             C 18.7 -11.2, 3.6 -11.2, 0 0
             C -3.6 11.2, -18.7 11.2, -18.7 0
             Z"
          fill="none" stroke="#1E293B" stroke-width="6.5" stroke-linecap="round" stroke-linejoin="round"/>
  </g>
</svg>
